<svg height="512pt" viewBox="0 0 512 512.07644" width="512pt" xmlns="http://www.w3.org/2000/svg"><path d="m503.265625 344.289062h-6.460937c-6.773438-.015624-12.953126 3.855469-15.890626 9.957032-7.210937 14.9375-21.1875 42.371094-30.613281 51.835937-13.242187 13.242188-17.65625 105.929688-61.792969 105.929688-44.140624 0-35.3125-79.445313-79.449218-79.445313-44.136719 0-70.621094-88.277344-105.929688-88.277344h-194.207031c-4.875 0-8.828125 3.953126-8.828125 8.828126v150.066406c0 4.878906 3.953125 8.828125 8.828125 8.828125h494.34375c4.875 0 8.828125-3.949219 8.828125-8.828125v-150.066406c0-4.875-3.953125-8.828126-8.828125-8.828126zm0 0" fill="#d78469"/><g fill="#935847"><path d="m44.230469 397.253906h-26.484375c-4.875 0-8.824219-3.953125-8.824219-8.828125s3.949219-8.828125 8.824219-8.828125h26.484375c4.875 0 8.828125 3.953125 8.828125 8.828125s-3.953125 8.828125-8.828125 8.828125zm0 0"/><path d="m97.195312 423.738281h-26.480468c-4.875 0-8.828125-3.953125-8.828125-8.828125s3.953125-8.828125 8.828125-8.828125h26.480468c4.875 0 8.828126 3.953125 8.828126 8.828125s-3.953126 8.828125-8.828126 8.828125zm0 0"/><path d="m167.816406 388.425781h-26.480468c-4.878907 0-8.828126-3.949219-8.828126-8.828125 0-4.875 3.949219-8.824218 8.828126-8.824218h26.480468c4.875 0 8.828125 3.949218 8.828125 8.824218 0 4.878906-3.953125 8.828125-8.828125 8.828125zm0 0"/><path d="m238.4375 459.046875h-26.484375c-4.875 0-8.824219-3.953125-8.824219-8.828125s3.949219-8.828125 8.824219-8.828125h26.484375c4.875 0 8.828125 3.953125 8.828125 8.828125s-3.953125 8.828125-8.828125 8.828125zm0 0"/><path d="m291.402344 494.359375h-26.480469c-4.875 0-8.828125-3.953125-8.828125-8.828125s3.953125-8.828125 8.828125-8.828125h26.480469c4.875 0 8.828125 3.953125 8.828125 8.828125s-3.953125 8.828125-8.828125 8.828125zm0 0"/><path d="m503.265625 441.390625h-26.484375c-4.875 0-8.828125-3.949219-8.828125-8.824219s3.953125-8.828125 8.828125-8.828125h26.484375c4.875 0 8.828125 3.953125 8.828125 8.828125s-3.953125 8.824219-8.828125 8.824219zm0 0"/></g><path d="m185.472656 344.289062c-17.65625 0-8.828125-70.621093-35.3125-70.621093-26.480468 0-8.824218-70.621094-61.792968-70.621094-52.964844 0-39.722657 75.035156-61.792969 97.105469-12.636719 11.015625-19.207031 27.441406-17.652344 44.136718zm0 0" fill="#a5b4b4"/><path d="m451.855469 35.757812 29.332031 19.660157-122.871094 183.320312-29.332031-19.660156zm0 0" fill="#dc6c33"/><path d="m464.183594 1.503906 43.996094 29.488282c4.050781 2.714843 5.132812 8.199218 2.417968 12.246093l-9.828125 14.667969c-2.714843 4.046875-8.199219 5.132812-12.246093 2.417969l-44-29.488281c-4.046876-2.714844-5.132813-8.199219-2.417969-12.25l9.832031-14.664063c2.714844-4.050781 8.195312-5.132813 12.246094-2.417969zm0 0" fill="#ec9130"/><path d="m375.441406 260.78125-34.425781 51.375c-11.714844 17.429688-34.070313 24.21875-53.496094 16.242188-2.730469-1.101563-5.335937-2.492188-7.769531-4.148438-2.480469-1.640625-4.761719-3.566406-6.796875-5.738281-14.773437-14.878907-16.992187-38.121094-5.296875-55.523438l34.429688-51.289062c1.292968-1.960938 3.316406-3.324219 5.621093-3.789063 2.300781-.460937 4.695313.011719 6.648438 1.316406l58.613281 39.371094c4.027344 2.695313 5.132812 8.132813 2.472656 12.183594zm0 0" fill="#c9ced1"/><path d="m331.304688 263.164062-43.785157 65.234376c-2.730469-1.101563-5.335937-2.492188-7.769531-4.148438-2.480469-1.640625-4.761719-3.566406-6.796875-5.738281l43.695313-65.148438c1.667968-2.8125 4.75-4.476562 8.019531-4.324219 3.265625.15625 6.179687 2.101563 7.570312 5.0625 1.390625 2.960938 1.03125 6.449219-.933593 9.0625zm0 0" fill="#919d9e"/><path d="m168.355469 467.875c.082031-2.839844 1.140625-5.566406 2.992187-7.722656 5.726563-6.746094 6.871094-16.261719 2.902344-24.175782-3.964844-7.910156-12.273438-12.6875-21.105469-12.132812-8.832031.550781-16.480469 6.328125-19.429687 14.671875-.4375 1.296875-.757813 2.628906-.960938 3.980469-.554687 4.394531-4.28125 7.699218-8.714844 7.722656h-71.34375c-4.429687-.023438-8.15625-3.328125-8.710937-7.722656-.203125-1.351563-.527344-2.683594-.964844-3.980469-2.386719-7.007813-8.160156-12.324219-15.339843-14.125-9.347657-2.4375-19.191407 1.484375-24.300782 9.679687-5.109375 8.199219-4.292968 18.765626 2.011719 26.082032 3.984375 4.378906 3.984375 11.070312 0 15.445312-5.726563 6.75-6.871094 16.261719-2.90625 24.175782 3.96875 7.910156 12.273437 12.6875 21.109375 12.132812 8.832031-.550781 16.476562-6.328125 19.425781-14.671875.4375-1.292969.761719-2.628906.964844-3.980469.554687-4.394531 4.28125-7.699218 8.710937-7.722656h71.34375c4.433594.023438 8.160157 3.328125 8.714844 7.722656.203125 1.351563.523438 2.6875.960938 3.980469 2.386718 7.007813 8.164062 12.324219 15.34375 14.125 9.34375 2.4375 19.191406-1.484375 24.300781-9.679687 5.109375-8.195313 4.292969-18.761719-2.011719-26.082032-1.851562-2.15625-2.910156-4.882812-2.992187-7.722656zm0 0" fill="#faedbd"/></svg>